#!OML:ASF H:\Dans Jumps\Project 1\Capture day 1\Session 1\subject.ASF
:FULLY-SPECIFIED
:DEGREES
525
root 0.343206 17.7392 4.12868 8.76308 -0.581793 -1.69072
lowerback -4.84418 -0.0326648 0.37487
upperback 1.17157 -0.119946 1.3804
thorax 3.92837 -0.0676427 1.20419
lowerneck -13.1725 -0.481818 -2.50221
upperneck 29.3996 -0.610931 1.86012
head 11.8043 -0.318646 1.04105
rclavicle -8.44835e-016 -4.77083e-015
rhumerus -27.448 -17.2624 -79.4356
rradius 24.2969
rwrist 33.5658
rhand -21.6526 -27.762
rfingers 7.12502
rthumb 4.74426 -57.6889
lclavicle -8.44835e-016 -4.77083e-015
lhumerus -24.9604 1.90119 86.7105
lradius 21.2089
lwrist 4.65331
lhand -26.0896 -5.54928
lfingers 7.12502
lthumb 0.459251 24.43
rfemur -12.3797 -3.05948 20.0227
rtibia 19.3515
rfoot -13.706 1.66399
rtoes 20.4491
lfemur -10.5161 6.3091 -17.3431
ltibia 16.3233
lfoot -9.67502 8.71433
ltoes 0.71898
526
root 0.345828 17.7394 4.12336 8.76024 -0.612367 -1.68312
lowerback -4.83593 -0.0299694 0.35581
upperback 1.17114 -0.114803 1.37419
thorax 3.92318 -0.0654529 1.20889
lowerneck -13.1784 -0.481586 -2.50841
upperneck 29.3151 -0.609205 1.86394
head 11.7723 -0.31777 1.043
rclavicle 2.60905e-015 5.56597e-015
rhumerus -27.5288 -17.3998 -79.3433
rradius 24.2324
rwrist 33.6755
rhand -21.67 -27.7794
rfingers 7.12502
rthumb 4.72738 -57.7066
lclavicle 2.60905e-015 5.56597e-015
lhumerus -25.0863 1.85111 86.7175
lradius 21.1158
lwrist 4.54945
lhand -26.0363 -5.49213
lfingers 7.12502
lthumb 0.510714 24.487
rfemur -12.4081 -3.02693 20.0017
rtibia 19.3649
rfoot -13.6915 1.66203
rtoes 20.4678
lfemur -10.5243 6.31216 -17.3633
ltibia 16.3169
lfoot -9.66235 8.72988
ltoes 0.740553
527
root 0.348283 17.7396 4.11801 8.75946 -0.643064 -1.68336
lowerback -4.83057 -0.0259044 0.34188
upperback 1.17091 -0.10831 1.37094
thorax 3.9198 -0.0625096 1.21387
lowerneck -13.18 -0.481693 -2.51048
upperneck 29.2232 -0.60798 1.86414
head 11.7364 -0.317095 1.04274
rclavicle 4.22417e-015 2.38542e-015
rhumerus -27.6068 -17.5441 -79.2467
rradius 24.1645
rwrist 33.7935
rhand -21.6888 -27.796
rfingers 7.12502
rthumb 4.70925 -57.7237
lclavicle 4.22417e-015 2.38542e-015
lhumerus -25.2048 1.79199 86.7294
lradius 21.0207
lwrist 4.45428
lhand -25.972 -5.42219
lfingers 7.12502
lthumb 0.572792 24.5568
rfemur -12.436 -2.98212 19.9901
rtibia 19.3733
rfoot -13.6751 1.64848
rtoes 20.4834
lfemur -10.5391 6.3178 -17.3743
ltibia 16.3179
lfoot -9.65159 8.74553
ltoes 0.767521
528
root 0.350644 17.7397 4.11275 8.76047 -0.673723 -1.6913
lowerback -4.82901 -0.0211673 0.333161
upperback 1.17198 -0.101448 1.3712
thorax 3.91992 -0.059311 1.2196
lowerneck -13.1792 -0.482062 -2.5124
upperneck 29.1226 -0.606608 1.86261
head 11.6968 -0.316525 1.04176
rclavicle 8.44835e-016 5.36719e-015
rhumerus -27.679 -17.6954 -79.146
rradius 24.0917
rwrist 33.9185
rhand -21.7033 -27.8134
rfingers 7.12502
rthumb 4.69525 -57.7414
lclavicle 8.44835e-016 5.36719e-015
lhumerus -25.318 1.7392 86.745
lradius 20.9282
lwrist 4.35888
lhand -25.9011 -5.35471
lfingers 7.12502
lthumb 0.641306 24.6241
rfemur -12.4629 -2.93358 19.9875
rtibia 19.3763
rfoot -13.6554 1.63124
rtoes 20.4916
lfemur -10.5589 6.32689 -17.3769
ltibia 16.3254
lfoot -9.64461 8.76151
ltoes 0.792275
